<mxfile host="Electron" agent="Mozilla/5.0 (Windows NT 10.0; Win64; x64) AppleWebKit/537.36 (KHTML, like Gecko) draw.io/27.0.9 Chrome/134.0.6998.205 Electron/35.4.0 Safari/537.36" version="27.0.9">
  <diagram name="Sivu-1" id="QBBaQ64bJx7QSxKJhzwh">
    <mxGraphModel dx="1226" dy="736" grid="1" gridSize="10" guides="1" tooltips="1" connect="1" arrows="1" fold="1" page="1" pageScale="1" pageWidth="827" pageHeight="1169" math="0" shadow="0">
      <root>
        <mxCell id="0" />
        <mxCell id="1" parent="0" />
        <mxCell id="r4S6j7dR2Bc74DlHvSjS-1" value="" style="rounded=0;whiteSpace=wrap;html=1;fillColor=none;dashed=1;" vertex="1" parent="1">
          <mxGeometry x="240" y="180" width="500" height="500" as="geometry" />
        </mxCell>
        <mxCell id="r4S6j7dR2Bc74DlHvSjS-2" value="" style="rounded=0;whiteSpace=wrap;html=1;fillColor=none;dashed=1;" vertex="1" parent="1">
          <mxGeometry x="780" y="180" width="150" height="500" as="geometry" />
        </mxCell>
        <mxCell id="r4S6j7dR2Bc74DlHvSjS-3" value="" style="rounded=0;whiteSpace=wrap;html=1;fillColor=none;dashed=1;" vertex="1" parent="1">
          <mxGeometry x="50" y="180" width="150" height="500" as="geometry" />
        </mxCell>
        <mxCell id="r4S6j7dR2Bc74DlHvSjS-4" value="&lt;font style=&quot;font-size: 20px;&quot;&gt;Sources&lt;/font&gt;" style="text;html=1;align=center;verticalAlign=middle;whiteSpace=wrap;rounded=0;fillColor=default;" vertex="1" parent="1">
          <mxGeometry x="90" y="160" width="70" height="30" as="geometry" />
        </mxCell>
        <mxCell id="r4S6j7dR2Bc74DlHvSjS-5" value="&lt;font style=&quot;font-size: 17px;&quot;&gt;Consume&lt;/font&gt;" style="text;html=1;align=center;verticalAlign=middle;whiteSpace=wrap;rounded=0;fillColor=default;" vertex="1" parent="1">
          <mxGeometry x="820" y="160" width="70" height="30" as="geometry" />
        </mxCell>
        <mxCell id="r4S6j7dR2Bc74DlHvSjS-6" value="&lt;font style=&quot;font-size: 17px;&quot;&gt;Data Warehouse&lt;/font&gt;" style="text;html=1;align=center;verticalAlign=middle;whiteSpace=wrap;rounded=0;fillColor=default;" vertex="1" parent="1">
          <mxGeometry x="409.5" y="160" width="161" height="30" as="geometry" />
        </mxCell>
        <mxCell id="r4S6j7dR2Bc74DlHvSjS-7" value="&lt;font style=&quot;font-size: 20px;&quot;&gt;Bronze Layer&lt;/font&gt;" style="rounded=0;whiteSpace=wrap;html=1;fillColor=#a0522d;dashed=1;fontColor=#ffffff;strokeColor=#6D1F00;" vertex="1" parent="1">
          <mxGeometry x="260" y="200" width="137" height="30" as="geometry" />
        </mxCell>
        <mxCell id="r4S6j7dR2Bc74DlHvSjS-8" value="" style="rounded=0;whiteSpace=wrap;html=1;fillColor=none;fontColor=#ffffff;strokeColor=#6D1F00;strokeWidth=2;" vertex="1" parent="1">
          <mxGeometry x="260" y="240" width="150" height="420" as="geometry" />
        </mxCell>
        <mxCell id="r4S6j7dR2Bc74DlHvSjS-9" value="&lt;font style=&quot;font-size: 20px;&quot;&gt;Silver Layer&lt;/font&gt;" style="rounded=0;whiteSpace=wrap;html=1;fillColor=#f5f5f5;dashed=1;strokeColor=#666666;gradientColor=#b3b3b3;fontColor=#000000;" vertex="1" parent="1">
          <mxGeometry x="421.5" y="200" width="137" height="30" as="geometry" />
        </mxCell>
        <mxCell id="r4S6j7dR2Bc74DlHvSjS-10" value="" style="rounded=0;whiteSpace=wrap;html=1;fillColor=none;strokeColor=#666666;gradientColor=#b3b3b3;strokeWidth=2;" vertex="1" parent="1">
          <mxGeometry x="421.5" y="240" width="148.5" height="420" as="geometry" />
        </mxCell>
        <mxCell id="r4S6j7dR2Bc74DlHvSjS-11" value="&lt;font style=&quot;font-size: 20px;&quot;&gt;Gold Layer&lt;/font&gt;" style="rounded=0;whiteSpace=wrap;html=1;fillColor=#fff2cc;dashed=1;strokeColor=#d6b656;gradientColor=#ffd966;fontColor=#000000;" vertex="1" parent="1">
          <mxGeometry x="580" y="200" width="137" height="30" as="geometry" />
        </mxCell>
        <mxCell id="r4S6j7dR2Bc74DlHvSjS-12" value="" style="rounded=0;whiteSpace=wrap;html=1;fillColor=none;strokeColor=#d6b656;strokeWidth=2;gradientColor=#ffd966;" vertex="1" parent="1">
          <mxGeometry x="580" y="240" width="150" height="420" as="geometry" />
        </mxCell>
        <mxCell id="r4S6j7dR2Bc74DlHvSjS-15" value="" style="group;fontSize=13;" vertex="1" connectable="0" parent="1">
          <mxGeometry x="94.19" y="230" width="61.610000000000014" height="70" as="geometry" />
        </mxCell>
        <mxCell id="r4S6j7dR2Bc74DlHvSjS-13" value="&lt;div&gt;&lt;span&gt;&lt;font style=&quot;font-size: 20px;&quot;&gt;&lt;br&gt;&lt;/font&gt;&lt;/span&gt;&lt;/div&gt;&lt;div&gt;&lt;span&gt;&lt;font style=&quot;font-size: 20px;&quot;&gt;CRM&lt;/font&gt;&lt;/span&gt;&lt;/div&gt;" style="image;aspect=fixed;html=1;points=[];align=center;fontSize=12;image=img/lib/azure2/general/Folder_Blank.svg;" vertex="1" parent="r4S6j7dR2Bc74DlHvSjS-15">
          <mxGeometry width="61.61" height="50" as="geometry" />
        </mxCell>
        <mxCell id="r4S6j7dR2Bc74DlHvSjS-14" value="" style="image;aspect=fixed;html=1;points=[];align=center;fontSize=12;image=img/lib/azure2/general/Media_File.svg;" vertex="1" parent="r4S6j7dR2Bc74DlHvSjS-15">
          <mxGeometry x="29.110000000000014" y="30" width="32.5" height="40" as="geometry" />
        </mxCell>
        <mxCell id="r4S6j7dR2Bc74DlHvSjS-16" value="" style="group;fontSize=13;" vertex="1" connectable="0" parent="1">
          <mxGeometry x="94.19" y="345" width="61.610000000000014" height="70" as="geometry" />
        </mxCell>
        <mxCell id="r4S6j7dR2Bc74DlHvSjS-17" value="&lt;div&gt;&lt;span&gt;&lt;font style=&quot;font-size: 20px;&quot;&gt;&lt;br&gt;&lt;/font&gt;&lt;/span&gt;&lt;/div&gt;&lt;div&gt;&lt;span&gt;&lt;font style=&quot;font-size: 20px;&quot;&gt;ERP&lt;/font&gt;&lt;/span&gt;&lt;/div&gt;" style="image;aspect=fixed;html=1;points=[];align=center;fontSize=12;image=img/lib/azure2/general/Folder_Blank.svg;" vertex="1" parent="r4S6j7dR2Bc74DlHvSjS-16">
          <mxGeometry width="61.61" height="50" as="geometry" />
        </mxCell>
        <mxCell id="r4S6j7dR2Bc74DlHvSjS-18" value="" style="image;aspect=fixed;html=1;points=[];align=center;fontSize=12;image=img/lib/azure2/general/Media_File.svg;" vertex="1" parent="r4S6j7dR2Bc74DlHvSjS-16">
          <mxGeometry x="29.110000000000014" y="30" width="32.5" height="40" as="geometry" />
        </mxCell>
        <mxCell id="r4S6j7dR2Bc74DlHvSjS-19" value="" style="endArrow=none;html=1;rounded=0;" edge="1" parent="1">
          <mxGeometry width="50" height="50" relative="1" as="geometry">
            <mxPoint x="50" y="460" as="sourcePoint" />
            <mxPoint x="200" y="460" as="targetPoint" />
          </mxGeometry>
        </mxCell>
        <mxCell id="r4S6j7dR2Bc74DlHvSjS-21" value="&lt;b&gt;Object type: &lt;/b&gt;CSV FILES" style="text;html=1;align=center;verticalAlign=middle;whiteSpace=wrap;rounded=0;" vertex="1" parent="1">
          <mxGeometry x="50" y="490" width="150" height="30" as="geometry" />
        </mxCell>
        <mxCell id="r4S6j7dR2Bc74DlHvSjS-22" value="&lt;b&gt;Interface: &lt;/b&gt;Files in folder" style="text;html=1;align=center;verticalAlign=middle;whiteSpace=wrap;rounded=0;" vertex="1" parent="1">
          <mxGeometry x="50" y="520" width="150" height="30" as="geometry" />
        </mxCell>
        <mxCell id="r4S6j7dR2Bc74DlHvSjS-23" value="Raw Data" style="html=1;verticalLabelPosition=bottom;align=center;labelBackgroundColor=none;verticalAlign=top;strokeWidth=2;strokeColor=#d6b656;shadow=0;dashed=0;shape=mxgraph.ios7.icons.data;fillColor=#fff2cc;gradientColor=#ffd966;" vertex="1" parent="1">
          <mxGeometry x="303.5" y="300" width="50" height="60" as="geometry" />
        </mxCell>
        <mxCell id="r4S6j7dR2Bc74DlHvSjS-24" value="Cleaned, Standardized&amp;nbsp;&lt;div&gt;Data&lt;/div&gt;" style="html=1;verticalLabelPosition=bottom;align=center;labelBackgroundColor=none;verticalAlign=top;strokeWidth=2;strokeColor=#666666;shadow=0;dashed=0;shape=mxgraph.ios7.icons.data;fillColor=#f5f5f5;gradientColor=#b3b3b3;" vertex="1" parent="1">
          <mxGeometry x="465" y="300" width="50" height="60" as="geometry" />
        </mxCell>
        <mxCell id="r4S6j7dR2Bc74DlHvSjS-25" value="Business-Ready data" style="html=1;verticalLabelPosition=bottom;align=center;labelBackgroundColor=none;verticalAlign=top;strokeWidth=2;strokeColor=#d79b00;shadow=0;dashed=0;shape=mxgraph.ios7.icons.data;fillColor=#ffcd28;gradientColor=#ffa500;" vertex="1" parent="1">
          <mxGeometry x="623.5" y="300" width="50" height="60" as="geometry" />
        </mxCell>
        <mxCell id="r4S6j7dR2Bc74DlHvSjS-27" value="" style="html=1;shadow=0;dashed=0;align=center;verticalAlign=middle;shape=mxgraph.arrows2.arrow;dy=0.6;dx=40;notch=0;" vertex="1" parent="1">
          <mxGeometry x="374" y="327.5" width="78" height="20" as="geometry" />
        </mxCell>
        <mxCell id="r4S6j7dR2Bc74DlHvSjS-28" value="" style="html=1;shadow=0;dashed=0;align=center;verticalAlign=middle;shape=mxgraph.arrows2.arrow;dy=0.6;dx=40;notch=0;" vertex="1" parent="1">
          <mxGeometry x="190" y="327.5" width="78" height="20" as="geometry" />
        </mxCell>
        <mxCell id="r4S6j7dR2Bc74DlHvSjS-29" value="" style="html=1;shadow=0;dashed=0;align=center;verticalAlign=middle;shape=mxgraph.arrows2.arrow;dy=0.6;dx=40;notch=0;" vertex="1" parent="1">
          <mxGeometry x="530" y="327.5" width="78" height="20" as="geometry" />
        </mxCell>
        <mxCell id="r4S6j7dR2Bc74DlHvSjS-30" value="" style="html=1;shadow=0;dashed=0;align=center;verticalAlign=middle;shape=mxgraph.arrows2.arrow;dy=0.6;dx=40;notch=0;" vertex="1" parent="1">
          <mxGeometry x="690" y="327.5" width="78" height="20" as="geometry" />
        </mxCell>
        <mxCell id="r4S6j7dR2Bc74DlHvSjS-31" value="&lt;b&gt;Object type: &lt;/b&gt;Table&lt;div&gt;&lt;br&gt;&lt;div style=&quot;text-align: left;&quot;&gt;&lt;b&gt;Load:&amp;nbsp;&lt;/b&gt;&lt;/div&gt;&lt;div style=&quot;text-align: left;&quot;&gt;&lt;b&gt;&lt;br&gt;&lt;/b&gt;&lt;/div&gt;&lt;div style=&quot;text-align: left;&quot;&gt;&lt;b&gt;- &lt;/b&gt;Batch processing&lt;/div&gt;&lt;div style=&quot;text-align: left;&quot;&gt;- Full Load&lt;/div&gt;&lt;div style=&quot;text-align: left;&quot;&gt;- Truncate &amp;amp; Insert&lt;/div&gt;&lt;div style=&quot;text-align: left;&quot;&gt;&lt;br&gt;&lt;/div&gt;&lt;div style=&quot;text-align: left;&quot;&gt;No &lt;b&gt;Transformations&lt;/b&gt;&lt;/div&gt;&lt;div style=&quot;text-align: left;&quot;&gt;&lt;b&gt;&lt;br&gt;&lt;/b&gt;&lt;/div&gt;&lt;div style=&quot;text-align: left;&quot;&gt;&lt;b&gt;Data Model: &lt;/b&gt;None(as is)&lt;/div&gt;&lt;div&gt;&lt;b&gt;&lt;br&gt;&lt;/b&gt;&lt;/div&gt;&lt;/div&gt;" style="text;html=1;align=center;verticalAlign=middle;whiteSpace=wrap;rounded=0;" vertex="1" parent="1">
          <mxGeometry x="259.5" y="380" width="150" height="210" as="geometry" />
        </mxCell>
        <mxCell id="r4S6j7dR2Bc74DlHvSjS-33" value="&lt;b&gt;Object type: &lt;/b&gt;Tables&lt;div&gt;&lt;br&gt;&lt;div style=&quot;text-align: left;&quot;&gt;&lt;b&gt;Load:&amp;nbsp;&lt;/b&gt;&lt;/div&gt;&lt;div style=&quot;text-align: left;&quot;&gt;&lt;b&gt;&lt;br&gt;&lt;/b&gt;&lt;/div&gt;&lt;div style=&quot;text-align: left;&quot;&gt;&lt;b&gt;- &lt;/b&gt;Batch processing&lt;/div&gt;&lt;div style=&quot;text-align: left;&quot;&gt;- Full Load&lt;/div&gt;&lt;div style=&quot;text-align: left;&quot;&gt;- Truncate &amp;amp; Insert&lt;/div&gt;&lt;div style=&quot;text-align: left;&quot;&gt;&lt;br&gt;&lt;/div&gt;&lt;div style=&quot;text-align: left;&quot;&gt;&lt;b&gt;Transformations:&lt;/b&gt;&lt;/div&gt;&lt;div style=&quot;text-align: left;&quot;&gt;&lt;b&gt;- &lt;/b&gt;Data Cleansing&lt;/div&gt;&lt;div style=&quot;text-align: left;&quot;&gt;- Data Standardization&lt;/div&gt;&lt;div style=&quot;text-align: left;&quot;&gt;- Data Normalization&lt;/div&gt;&lt;div style=&quot;text-align: left;&quot;&gt;- Derived Columns&lt;/div&gt;&lt;div style=&quot;text-align: left;&quot;&gt;- Data Enrichment&lt;/div&gt;&lt;div style=&quot;text-align: left;&quot;&gt;&lt;b&gt;&lt;br&gt;&lt;/b&gt;&lt;/div&gt;&lt;div style=&quot;text-align: left;&quot;&gt;&lt;b&gt;Data Model: &lt;/b&gt;None(as is)&lt;/div&gt;&lt;div&gt;&lt;b&gt;&lt;br&gt;&lt;/b&gt;&lt;/div&gt;&lt;/div&gt;" style="text;html=1;align=center;verticalAlign=middle;whiteSpace=wrap;rounded=0;" vertex="1" parent="1">
          <mxGeometry x="421.5" y="420" width="150" height="210" as="geometry" />
        </mxCell>
        <mxCell id="r4S6j7dR2Bc74DlHvSjS-35" value="&lt;b&gt;Object type: &lt;/b&gt;Views&lt;div&gt;&lt;br&gt;&lt;div&gt;&lt;div style=&quot;text-align: left;&quot;&gt;&lt;b&gt;No Load&lt;/b&gt;&lt;/div&gt;&lt;div style=&quot;text-align: left;&quot;&gt;&lt;br&gt;&lt;/div&gt;&lt;div style=&quot;text-align: left;&quot;&gt;&lt;b&gt;Transformations:&lt;/b&gt;&lt;/div&gt;&lt;div style=&quot;text-align: left;&quot;&gt;&lt;b&gt;- &lt;/b&gt;Data Integrations&lt;/div&gt;&lt;div style=&quot;text-align: left;&quot;&gt;- Aggregations&lt;/div&gt;&lt;div style=&quot;text-align: left;&quot;&gt;- Business Logics&lt;/div&gt;&lt;div style=&quot;text-align: left;&quot;&gt;&lt;b&gt;&lt;br&gt;&lt;/b&gt;&lt;/div&gt;&lt;div style=&quot;text-align: left;&quot;&gt;&lt;b&gt;Data Model:&amp;nbsp;&lt;/b&gt;&lt;/div&gt;&lt;/div&gt;&lt;/div&gt;&lt;div style=&quot;text-align: left;&quot;&gt;- Star Schema&lt;/div&gt;&lt;div style=&quot;text-align: left;&quot;&gt;- Flat Table&lt;/div&gt;&lt;div style=&quot;text-align: left;&quot;&gt;- Aggregated Table&lt;/div&gt;" style="text;html=1;align=center;verticalAlign=middle;whiteSpace=wrap;rounded=0;" vertex="1" parent="1">
          <mxGeometry x="573.5" y="390" width="150" height="210" as="geometry" />
        </mxCell>
        <mxCell id="r4S6j7dR2Bc74DlHvSjS-36" value="&lt;font style=&quot;font-size: 15px;&quot;&gt;BI &amp;amp; Reporting&lt;/font&gt;" style="image;aspect=fixed;html=1;points=[];align=center;fontSize=12;image=img/lib/azure2/analytics/Power_BI_Embedded.svg;" vertex="1" parent="1">
          <mxGeometry x="834.5" y="221" width="41" height="54.67" as="geometry" />
        </mxCell>
        <mxCell id="r4S6j7dR2Bc74DlHvSjS-37" value="&lt;div&gt;&lt;font style=&quot;font-size: 15px;&quot;&gt;&lt;br&gt;&lt;/font&gt;&lt;/div&gt;&lt;font style=&quot;font-size: 15px;&quot;&gt;&lt;div&gt;&lt;font style=&quot;font-size: 15px;&quot;&gt;&lt;br&gt;&lt;/font&gt;&lt;/div&gt;&lt;div&gt;&lt;font style=&quot;font-size: 15px;&quot;&gt;&lt;br&gt;&lt;/font&gt;&lt;/div&gt;&lt;div&gt;&lt;font style=&quot;font-size: 15px;&quot;&gt;&lt;br&gt;&lt;/font&gt;&lt;/div&gt;Machine Learning&lt;/font&gt;" style="points=[];aspect=fixed;html=1;align=center;shadow=0;dashed=0;fillColor=#FF6A00;strokeColor=none;shape=mxgraph.alibaba_cloud.machine_learning;" vertex="1" parent="1">
          <mxGeometry x="830.1" y="534" width="49.8" height="50.099999999999994" as="geometry" />
        </mxCell>
        <mxCell id="r4S6j7dR2Bc74DlHvSjS-38" value="&lt;div&gt;&lt;span style=&quot;font-size: 15px; background-color: transparent; color: light-dark(rgb(0, 0, 0), rgb(255, 255, 255));&quot;&gt;Ad-Hoc&lt;/span&gt;&lt;/div&gt;&lt;div&gt;&lt;font style=&quot;font-size: 15px;&quot;&gt;SQL Queries&lt;/font&gt;&lt;/div&gt;" style="shadow=0;dashed=0;html=1;strokeColor=none;fillColor=#4495D1;labelPosition=center;verticalLabelPosition=bottom;verticalAlign=top;align=center;outlineConnect=0;shape=mxgraph.veeam.magnifying_glass;pointerEvents=1;" vertex="1" parent="1">
          <mxGeometry x="824.7" y="380" width="55.2" height="54.4" as="geometry" />
        </mxCell>
        <mxCell id="r4S6j7dR2Bc74DlHvSjS-39" value="&lt;font style=&quot;font-size: 30px;&quot;&gt;High Level Architecture&lt;/font&gt;" style="text;html=1;align=center;verticalAlign=middle;whiteSpace=wrap;rounded=0;" vertex="1" parent="1">
          <mxGeometry x="13" y="70" width="400" height="50" as="geometry" />
        </mxCell>
        <mxCell id="r4S6j7dR2Bc74DlHvSjS-41" value="&lt;font style=&quot;font-size: 14px;&quot;&gt;&lt;i&gt;SQL Server&lt;/i&gt;&lt;/font&gt;" style="text;html=1;align=center;verticalAlign=middle;whiteSpace=wrap;rounded=0;fillColor=default;" vertex="1" parent="1">
          <mxGeometry x="276.25" y="160" width="104.5" height="30" as="geometry" />
        </mxCell>
        <mxCell id="r4S6j7dR2Bc74DlHvSjS-42" value="" style="image;aspect=fixed;html=1;points=[];align=center;fontSize=12;image=img/lib/azure2/databases/SQL_Server.svg;" vertex="1" parent="1">
          <mxGeometry x="250" y="140" width="43.5" height="43.5" as="geometry" />
        </mxCell>
      </root>
    </mxGraphModel>
  </diagram>
</mxfile>
